<?xml version="1.0" encoding="iso-8859-1"?>
<!-- Generator: Adobe Illustrator 16.0.0, SVG Export Plug-In . SVG Version: 6.00 Build 0)  -->
<!DOCTYPE svg PUBLIC "-//W3C//DTD SVG 1.1//EN" "http://www.w3.org/Graphics/SVG/1.1/DTD/svg11.dtd">
<svg version="1.1" id="Capa_1" xmlns="http://www.w3.org/2000/svg" xmlns:xlink="http://www.w3.org/1999/xlink" x="0px" y="0px"
	 width="404.225px" height="404.225px" viewBox="0 0 404.225 404.225" style="enable-background:new 0 0 404.225 404.225;"
	 xml:space="preserve">
<g>
	<g>
		<g>
			<path d="M199.26,0C146.853,0,96.277,20.657,58.824,57.013l-13.271-9.528c-1.741-1.25-4.02-1.476-5.971-0.593
				c-1.953,0.883-3.287,2.741-3.5,4.874l-7.094,71.44c-0.211,2.133,0.73,4.217,2.473,5.467c1.037,0.745,2.264,1.126,3.499,1.126
				c0.839,0,1.681-0.176,2.471-0.532l65.416-29.569c1.954-0.883,3.288-2.74,3.499-4.874c0.213-2.133-0.729-4.217-2.471-5.467
				L91.971,80.81C121.379,54.715,159.666,40,199.259,40c89.055,0,161.506,72.451,161.506,161.505c0,11.046,8.953,20,20,20
				c11.045,0,20-8.954,20-20C400.765,90.394,310.37,0,199.26,0z"/>
			<path d="M372.763,275.551c-1.037-0.745-2.264-1.126-3.498-1.126c-0.84,0-1.682,0.176-2.473,0.532l-65.416,29.568
				c-1.953,0.883-3.287,2.739-3.498,4.875c-0.213,2.133,0.729,4.217,2.471,5.467l11.904,8.545
				c-29.408,26.098-67.695,40.812-107.288,40.812c-89.054,0-161.505-72.451-161.505-161.506c0-11.046-8.954-20-20-20
				s-20,8.954-20,20c0,111.109,90.395,201.506,201.505,201.506c52.407,0,102.983-20.657,140.438-57.014l13.27,9.527
				c1.742,1.25,4.021,1.477,5.973,0.594c1.953-0.883,3.287-2.742,3.5-4.875l7.095-71.439
				C375.446,278.885,374.505,276.801,372.763,275.551z"/>
			<path d="M134.115,254.168v-76.11c0-8.836-7.167-16.001-16.001-16.001c-8.839,0-16.001,7.165-16.001,16.001v76.11
				c0,8.836,7.162,16.001,16.001,16.001C126.948,270.169,134.115,263.004,134.115,254.168z"/>
			<path d="M190.111,254.168V122.056c0-8.836-7.162-16-15.996-16c-8.839,0-16.001,7.163-16.001,16v132.111
				c0,8.836,7.162,16.001,16.001,16.001C182.949,270.169,190.111,263.004,190.111,254.168z"/>
			<path d="M246.112,254.168v-98.511c0-8.837-7.162-16-16.002-16c-8.834,0-15.996,7.162-15.996,16v98.511
				c0,8.836,7.162,16.001,15.996,16.001C238.95,270.169,246.112,263.004,246.112,254.168z"/>
			<path d="M302.112,254.168V138.857c0-8.836-7.162-16.001-16-16.001c-8.834,0-16.002,7.165-16.002,16.001v115.311
				c0,8.836,7.168,16.001,16.002,16.001C294.95,270.169,302.112,263.004,302.112,254.168z"/>
		</g>
	</g>
</g>
<g>
</g>
<g>
</g>
<g>
</g>
<g>
</g>
<g>
</g>
<g>
</g>
<g>
</g>
<g>
</g>
<g>
</g>
<g>
</g>
<g>
</g>
<g>
</g>
<g>
</g>
<g>
</g>
<g>
</g>
</svg>
